<?xml version="1.0" encoding="UTF-8" standalone="no"?>
<!DOCTYPE svg PUBLIC "-//W3C//DTD SVG 1.1//EN"
"http://www.w3.org/Graphics/SVG/1.1/DTD/svg11.dtd">


<!-- Page 1 -->
<svg x="0" y="0" width="935" height="1210" viewBox="0 0 935 1210" version="1.1" xmlns="http://www.w3.org/2000/svg" xmlns:xlink="http://www.w3.org/1999/xlink"
style="display: block;margin-left: auto;margin-right: auto;">
<defs>

<style type="text/css"><![CDATA[

.g1_1{
}


]]></style>

</defs>
<path d="M0,0
L0,1210
L935,1210
L935,0 Z " 
fill="#FFFFFF" stroke="none" />
<path d="M356.1,590.3l0,15.1c0,4.4,2.4,7.7,7,7.7c4.4,0,7.4,-3.7,7.4,-8.1l0,-14.7l7,0l0,28.9l-6.3,0l-0.5,-3.9c-3,2.9,-5.7,4.3,-9.8,4.3C354,619.6,349,614.4,349,605.4l0,-15.1Z" class="g1_1" />
<path d="M383.9,619.1l7.1,0l0,-28.9l-7.1,0Zm7.8,-37c0,5.6,-8.5,5.6,-8.5,0c0,-5.5,8.5,-5.5,8.5,0Z" class="g1_1" />
<path d="M422.2,615.4c-3.3,3.3,-6.8,4.6,-11.1,4.6c-8.4,0,-15.3,-5,-15.3,-15.3c0,-10.2,6.9,-15.2,15.3,-15.2c4.1,0,7.2,1.1,10.4,4.2l-4.5,4.8c-1.7,-1.6,-3.8,-2.3,-5.8,-2.3c-4.8,0,-8.3,3.5,-8.3,8.5c0,5.5,3.7,8.5,8.2,8.5c2.3,0,4.6,-0.7,6.3,-2.4Z" class="g1_1" />
<path d="M448.3,601.3c-0.4,-3.7,-3.4,-5.6,-7.5,-5.6c-3.8,0,-7,1.9,-8,5.6Zm-15.7,5.9c0.5,3.6,3.6,6.2,8.6,6.2c2.7,0,6.1,-1,7.8,-2.7l4.5,4.5c-3,3.2,-8,4.7,-12.4,4.7c-9.9,0,-15.8,-6.2,-15.8,-15.4c0,-8.8,5.9,-15.1,15.3,-15.1c9.7,0,15.7,6,14.6,17.8Z" class="g1_1" />
<path d="M314.7,601.6c0,10.6,-6.7,18.3,-18,18.3c-10.5,0,-18,-6.2,-18,-17.8l7.6,0c0,7,3.4,10.6,10.4,10.6c7,0,10.3,-4.9,10.3,-11.1l0,-16.2l-12.4,0l0,-7.2l20.1,0Z" class="g1_1" />
<path d="M322.6,578.2l0,7.2l12.4,0l0,16.2c0,6.2,-3.3,11.1,-10.3,11.1c-4.1,0,-7,-1.3,-8.6,-3.7c-0.8,2.6,-2.1,4.9,-3.8,6.8c3.2,2.7,7.4,4.1,12.4,4.1c11.3,0,18,-7.7,18,-18.3l0,-23.4Z" class="g1_1" />
<path d="M530.1,492.6c0,-5.8,-4.6,-10.4,-10.4,-10.4c-5.7,0,-10.4,4.6,-10.4,10.4c0,5.7,4.7,10.4,10.4,10.4c5.8,0,10.4,-4.7,10.4,-10.4Z" class="g1_1" />
<path d="M541.2,508.4c1.1,-1.5,2.1,-3.2,2.9,-4.9Z" class="g1_1" />
<path d="M499.8,492.6c0,-11,8.9,-19.9,19.9,-19.9c11,0,19.9,8.9,19.9,19.9c0,3.8,-1.1,7.4,-2.9,10.4l7.6,0c1.4,-3.2,2.1,-6.7,2.1,-10.4c0,-14.8,-11.9,-26.7,-26.7,-26.7C505,465.9,493,477.8,493,492.6c0,3.7,0.8,7.2,2.1,10.4l7.7,0c-1.9,-3,-3,-6.6,-3,-10.4Z" class="g1_1" />
<path d="M498.3,508.4l-2.9,-4.9c0.7,1.7,1.7,3.4,2.9,4.9Z" class="g1_1" />
<path d="M495.1,503l0.3,0.5c-0.1,-0.2,-0.2,-0.3,-0.3,-0.5Z" class="g1_1" />
<path d="M544.4,503l-0.1,0c0,0.2,-0.1,0.3,-0.2,0.5Z" class="g1_1" />
<path d="M519.7,519.3c-8.8,0,-16.6,-4.3,-21.4,-10.9l21.4,36.7l21.5,-36.7c-4.9,6.6,-12.7,10.9,-21.5,10.9Z" class="g1_1" />
<path d="M544.3,503l-7.6,0c-3.5,5.7,-9.8,9.5,-17,9.5c-7.1,0,-13.4,-3.8,-16.9,-9.5l-7.7,0c0.1,0.2,0.2,0.3,0.3,0.5l2.9,4.9c4.8,6.6,12.6,10.9,21.4,10.9c8.8,0,16.6,-4.3,21.5,-10.9l2.9,-4.9c0.1,-0.2,0.2,-0.3,0.2,-0.5Z" class="g1_1" />
<path d="M631.3,564.8l0,84.4c0,0,-24.9,-14.3,-24.9,-35.3c0,-21.1,24.9,-49.1,24.9,-49.1Z" class="g1_1" />
<path d="M638.1,583.2l0,66c0,0,19.4,-11.2,19.4,-27.6c0,-16.5,-19.4,-38.4,-19.4,-38.4Z" class="g1_1" />
<path d="M511.9,735C507,735,503,730.1,503,724.2c0,-4.3,2,-8,5,-9.7c-1.3,2.5,-1.8,5.6,-1.3,8.8c0.8,5.6,4.4,9.9,8.6,10.9c-1.1,0.5,-2.2,0.8,-3.4,0.8m8.2,-36.6c-13.7,0,-24.7,11.1,-24.7,24.7c0,13.6,11,24.7,24.7,24.7c13.6,0,24.7,-11.1,24.7,-24.7c0,-13.6,-11.1,-24.7,-24.7,-24.7Z" class="g1_1" />
<path d="M499.2,709.9l41.7,0c0,0,-16.5,-28.8,-20.8,-42.8c-4.8,13.3,-20.9,42.8,-20.9,42.8l41.7,0Z" class="g1_1" />
<path d="M393.3,732.6l-1.9,-1.9L640.8,479.9l2,1.9Z" class="g1_1" />
<path d="M641.5,731.9L390.7,482.5l1.9,-2L643.4,730Z" class="g1_1" />

</svg>
